# xmcd
#
# Track frame offsets:
# 187
# 25705
# 45952
# 71427
#
# Disc length: 1220 seconds
#
# Revision: 0
# Processed by: cddbd v1.5.1PL0 Copyright (c) Steve Scherf et al.
# Submitted via: MacMP3 Pro 5.0 (http://mp3.act2.co.jp/)
#
DISCID=2404c204
DTITLE=SPLASH - SUNRISE/Single
DYEAR=1900
DGENRE=
TTITLE0=SUNRISE
TTITLE1=ROUGH and TOUGH
TTITLE2=SUNRISE/Karaoke
TTITLE3=ROUGH and TOUGH/Karaoke
EXTD=
EXTT0=
EXTT1=
EXTT2=
EXTT3=
PLAYORDER=
